<svg xmlns="http://www.w3.org/2000/svg" width="256" height="256"><path fill-opacity=".016" d="M0 128.004v128.004l128.25-.254 128.25-.254.254-127.75L257.008 0H0v128.004m.485.496c0 70.4.119 99.053.265 63.672.146-35.38.146-92.98 0-128C.604 29.153.485 58.1.485 128.5" fill="#1976D2" fill-rule="evenodd"/><path fill-opacity=".079" d="M106.5 1.588C59.026 9.944 20.077 44.044 5.576 89.948c-7.425 23.506-7.425 52.598 0 76.104 12.605 39.902 44.425 71.802 84.043 84.256 24.067 7.565 52.627 7.556 76.881-.023 38.23-11.947 70.204-43.348 82.931-81.447 2.922-8.748 5.569-20.584 5.569-24.903 0-1.614.45-2.935 1-2.935.621 0 .994-5.406.985-14.25-.011-9.57-.334-13.757-.985-12.75-.738 1.142-.973.739-.985-1.685-.008-1.751-.692-6.403-1.52-10.337-10.862-51.638-52.316-91.484-104.421-100.37-11.48-1.958-31.511-1.968-42.574-.02m6.02 14.46c-24.619 3.861-45.945 14.406-63.376 31.336-15.463 15.018-27.308 36.48-31.8 57.616-2.479 11.664-2.479 34.336 0 46 11.49 54.066 61.694 92.829 116.156 89.687 29.247-1.688 53.511-12.53 74.084-33.103 16.304-16.303 25.857-33.773 31.093-56.859 2.252-9.932 2.252-35.518 0-45.45-5.236-23.086-14.789-40.556-31.093-56.859-16.353-16.354-34.266-26.126-56.859-31.019-8.735-1.891-29.968-2.641-38.205-1.349M98.153 58.316c-1.432 1.726-1.501 2.667-1.311 17.934L97 89h3c2.954 0 3 .08 2.986 5.25-.021 8.355-.672 9.477-8.603 14.829-4.044 2.729-8.034 6.28-8.868 7.892C84.244 119.43 84 125.712 84 156.05v36.15l3.4 3.4c3.947 3.947 4.317 3.981 21.062 1.892 15.077-1.881 23.999-1.881 39.076 0 16.745 2.089 17.115 2.055 21.062-1.892l3.4-3.4v-36.15c0-30.338-.244-36.62-1.515-39.079-.834-1.612-4.824-5.163-8.868-7.892-7.931-5.352-8.582-6.474-8.603-14.829-.014-5.148.043-5.25 2.93-5.25h2.945l.319-13.25c.183-7.573-.12-14.321-.707-15.75l-1.027-2.5-29.102-.265c-23.41-.213-29.321-.002-30.219 1.081M110 91.75V94h36v-4.5h-36v2.25m-1.074 11.999c-1.264 4.21-2.261 5.322-8.77 9.792-4.039 2.773-7.757 5.782-8.263 6.686-.524.936-.806 16.392-.656 35.958L91.5 190.5l7.5-.22c9.699-.284 48.301-.284 58 0l7.5.22.263-34.315c.15-19.566-.132-35.022-.656-35.958-.506-.904-4.224-3.913-8.263-6.686-6.509-4.47-7.506-5.582-8.77-9.792L145.647 99h-35.294l-1.427 4.749M.397 128c0 7.975.156 11.238.346 7.25.189-3.988.189-10.513 0-14.5-.19-3.987-.346-.725-.346 7.25m121.207-4.962c-4.223 1.264-8.481 5.792-9.699 10.314-.852 3.163-.735 4.803.585 8.261.906 2.373 1.565 5.119 1.464 6.101-.351 3.402.06 4.095 3.046 5.136 1.65.575 3 1.519 3 2.098s.9 1.052 2 1.052 2 .45 2 1c0 1.444 2.755 1.232 3.254-.25.321-.953.855-.893 2.246.25s1.925 1.203 2.246.25c.231-.687 1.235-1.25 2.23-1.25.996 0 2.069-.675 2.386-1.5.316-.825 1.232-1.5 2.035-1.5 2.352 0 4.735-3.008 4.063-5.127-.335-1.054.135-3.865 1.044-6.245 4.729-12.383-7.618-22.863-21.9-18.59m-4.295 16.598c-1.635 4.261 5.535 7.393 7.693 3.36.858-1.602.844-2.476-.055-3.56-1.648-1.986-6.851-1.85-7.638.2m13.744-.2c-1.724 2.077.381 5.564 3.36 5.564 3.004 0 4.934-2.33 4.102-4.952-.775-2.442-5.613-2.839-7.462-.612m-4.871 8.064c-1.075 2.36-.973 2.5 1.818 2.5s2.893-.14 1.818-2.5c-.626-1.375-1.445-2.5-1.818-2.5s-1.192 1.125-1.818 2.5m-17.515 8.079c-2.319 3.184-.834 5.387 3.705 5.497 1.721.042 4.684.638 6.587 1.325l3.459 1.25-4.136 1.05c-2.275.577-5.289.829-6.697.56-1.789-.342-2.754.017-3.205 1.192-.739 1.924 1.418 6.556 3.039 6.528.595-.01 4.123-1.56 7.841-3.444 5.727-2.903 6.491-3.583 5-4.451-2.996-1.745-1.028-1.207 7.263 1.986 4.387 1.689 8.687 3.714 9.556 4.5 2.346 2.122 4.487 1.74 6.373-1.139 2.356-3.596.598-5.413-5.324-5.503-2.546-.039-5.504-.413-6.574-.832-1.562-.611-1.031-.992 2.693-1.93 2.551-.642 5.509-1.168 6.573-1.168s2.477-.653 3.14-1.452c.959-1.155.83-1.968-.627-3.969-2.211-3.035-3.08-3.143-5.769-.713-1.135 1.027-4.201 2.663-6.814 3.636-2.613.973-4.75 2.155-4.75 2.625 0 1.294-13.159-3.928-15.544-6.169-2.693-2.529-3.562-2.436-5.789.621" fill="#1976D2" fill-rule="evenodd"/><path fill-opacity=".23" d="M111.5 1.075c-21.929 3.014-44.599 12.5-62.052 25.965-8.458 6.525-22.02 21.233-27.826 30.175C6.681 80.229.556 100.81.556 128c0 35.714 12.081 64.894 37.315 90.129 18.93 18.93 39.332 29.891 66.129 35.527 11.734 2.469 36.266 2.469 48 0 27.099-5.7 49.124-17.743 67.823-37.087 19.28-19.944 32.709-47.981 34.878-72.819.324-3.713.974-6.75 1.444-6.75s.848-4.613.84-10.25c-.009-5.866-.372-9.687-.85-8.935-.516.815-1.061-1.28-1.429-5.5-2.173-24.904-15.581-52.918-34.883-72.884C201.229 20.196 178.872 7.93 152.5 2.494c-9.66-1.991-31.369-2.742-41-1.419m-3.845 15.459C81.657 21.44 56.917 36.13 40.278 56.541 31.124 67.77 22.065 85.472 18.294 99.5c-2.461 9.152-2.689 11.568-2.689 28.5 0 16.932.228 19.348 2.689 28.5 3.771 14.028 12.83 31.73 21.984 42.959 14.541 17.838 36.872 32.255 59.222 38.235 9.135 2.444 11.601 2.675 28.5 2.675 16.843 0 19.376-.235 28.277-2.634a115.43 115.43 0 0 0 81.458-81.458c2.399-8.901 2.634-11.434 2.634-28.277 0-16.843-.235-19.376-2.634-28.277-10.713-39.767-42.056-71.08-81.458-81.38-12.469-3.26-36.247-4.145-48.622-1.809M97.607 59.582c-.334.87-.607 7.845-.607 15.5V89h7.056l-.659 6.75c-.754 7.729-1.491 8.808-9.544 13.976-10.124 6.498-9.977 5.773-9.64 47.753l.287 35.696 2.967 2.551c3.239 2.785 2.989 2.781 31.783.466 4.812-.387 12.687-.387 17.5 0 28.794 2.315 28.544 2.319 31.783-.466l2.967-2.551.287-35.696c.337-41.98.484-41.255-9.64-47.753-8.053-5.168-8.79-6.247-9.544-13.976l-.659-6.75H159V75.082c0-7.655-.273-14.63-.607-15.5C157.858 58.188 154.238 58 128 58s-29.858.188-30.393 1.582m12.081 30.063c-.378.379-.688 1.513-.688 2.522C109 93.88 110.245 94 128.07 94h19.069l-.319-2.25c-.317-2.227-.506-2.253-18.382-2.522-9.933-.149-18.371.038-18.75.417M109 102.118c0 3.467-3.847 7.741-12.497 13.882-3.528 2.504-5.083 4.354-5.467 6.5-.295 1.65-.311 17.85-.036 36l.5 33 4.5-.089c2.475-.049 10.688-.623 18.25-1.276 10.611-.916 16.889-.916 27.5 0 7.563.653 15.775 1.227 18.25 1.276l4.5.089.5-33c.275-18.15.259-34.35-.036-36-.384-2.146-1.939-3.996-5.467-6.5-8.65-6.141-12.497-10.415-12.497-13.882V99h-38v3.118M.37 128c0 5.775.165 8.137.367 5.25.202-2.887.202-7.612 0-10.5S.37 122.225.37 128m123.13-5.071c-4.754 1.147-7.459 2.956-9.55 6.385-2.171 3.561-2.548 9.7-.796 12.973.634 1.186 1.097 3.659 1.028 5.496-.107 2.855.306 3.491 2.846 4.377 1.635.569 2.972 1.61 2.972 2.313 0 1.411 3.868 2.337 8.5 2.035 1.65-.108 4.012-.266 5.25-.352 1.238-.086 2.25-.787 2.25-1.558s1.359-1.876 3.019-2.455c2.501-.872 2.982-1.543 2.802-3.911-.12-1.573.379-4.301 1.109-6.062 2.129-5.142.875-12.062-2.778-15.326-4.579-4.091-10.326-5.442-16.652-3.915m-6.116 16.513c-1.232 3.21.054 5.058 3.521 5.058 3.68 0 5.818-2.173 4.786-4.864-.811-2.112-7.511-2.269-8.307-.194m12.949.133c-1.056 2.752 1.052 4.925 4.776 4.925 3.101 0 3.391-.256 3.391-3 0-2.746-.318-3.026-3.758-3.311-2.804-.232-3.923.12-4.409 1.386m-4.298 7.359c-1.422 2.657-1.372 2.768 1.489 3.315 3.069.587 3.93-.532 2.487-3.228-1.359-2.54-2.648-2.568-3.976-.087m-16.406 7.924c-3.22 3.558-1.556 6.142 3.958 6.142 3.234 0 24.176 7.731 27.717 10.232 2.704 1.911 2.874 1.917 4.794.18 1.094-.991 1.858-2.696 1.696-3.788-.245-1.658-1.122-2.007-5.294-2.112-5.413-.136-24.415-7.084-28.795-10.529-2.354-1.852-2.509-1.857-4.076-.125m33.449-.452c-.665.802-3.655 2.471-6.644 3.71-2.989 1.238-5.434 2.567-5.434 2.951 0 1.295 3.799 1.708 7.664.833 2.11-.477 5.074-1.108 6.586-1.403 3.254-.633 3.669-3.355.893-5.867-1.616-1.463-2.013-1.492-3.065-.224m-23.335 10.184c-.337.337-2.967.904-5.846 1.261-5.961.739-6.793 1.834-3.993 5.248 1.679 2.045 2.239 2.215 3.783 1.146.997-.691 3.838-2.257 6.313-3.48 5.488-2.714 5.431-2.677 4.917-3.141-.965-.87-4.61-1.598-5.174-1.034" fill="#1976D2" fill-rule="evenodd"/><path fill-opacity=".275" d="M117.242 1.075C60.089 5.568 12.406 49.154 2.41 106.039c-2.151 12.244-2.151 31.678 0 43.922 9.212 52.421 50.868 94.258 103.094 103.542 11.54 2.052 33.261 2.086 44.586.071 39.751-7.073 74.103-32.862 92.298-69.291 16.974-33.987 16.974-78.579 0-112.566-6.191-12.394-14.461-23.855-24.356-33.749-26.696-26.696-62.728-39.885-100.79-36.893m1.258 13.562C66.955 20.124 27.02 55.872 16.434 106c-2.436 11.535-2.436 32.465 0 44 9.663 45.761 45.03 80.877 90.254 89.615 10.697 2.067 29.909 2.285 40.312.458 41.393-7.27 76.012-37.208 88.935-76.908 3.911-12.015 5.402-21.722 5.402-35.165 0-13.443-1.491-23.15-5.402-35.165-12.652-38.869-46.401-68.707-86.361-76.352-7.84-1.5-24.837-2.51-31.074-1.846M98.035 59.934C97.466 60.998 97 67.973 97 75.434V89h7l-.118 4.75c-.225 9.014-.829 10.078-8.876 15.62-4.121 2.838-8.03 6.279-8.685 7.646-.841 1.755-1.255 13.191-1.409 38.904l-.218 36.418 3.169 2.831c3.751 3.351 3.973 3.362 24.387 1.166 14.802-1.592 16.698-1.592 31.5 0 20.414 2.196 20.636 2.185 24.387-1.166l3.169-2.831-.218-36.418c-.154-25.713-.568-37.149-1.409-38.904-.655-1.367-4.564-4.808-8.685-7.646-8.047-5.542-8.651-6.606-8.876-15.62L152 89h7V75.434c0-7.461-.466-14.436-1.035-15.5C156.978 58.09 155.578 58 128 58s-28.978.09-29.965 1.934M109 92v3h38v-6h-38v3m-1 11.755c-1.312 4.149-2.366 5.324-8.391 9.357-3.79 2.536-7.486 5.686-8.214 7-1.023 1.845-1.332 10.037-1.36 36.016-.031 29.472.16 33.789 1.547 34.94 1.291 1.071 3.819 1.092 13.75.114 6.692-.659 16.893-1.199 22.668-1.199 5.775 0 15.976.54 22.668 1.199 9.931.978 12.459.957 13.75-.114 1.387-1.151 1.578-5.468 1.547-34.94-.028-25.979-.337-34.171-1.36-36.016-.728-1.314-4.424-4.464-8.214-7-6.025-4.033-7.079-5.208-8.391-9.357l-1.5-4.745h-37l-1.5 4.745m11.424 21.14c-6.621 3.007-8.968 9.987-5.997 17.835.785 2.073 1.348 4.881 1.25 6.239-.126 1.759.398 2.574 1.823 2.834 1.1.201 2.459.89 3.02 1.531 3.606 4.121 13.644 4.158 16.98.062.55-.675 1.9-1.392 3-1.593 1.425-.26 1.949-1.075 1.823-2.834-.098-1.358.465-4.166 1.25-6.239 1.857-4.907 1.802-8.137-.211-12.379-3.22-6.786-14.238-9.407-22.938-5.456m-1.853 13.676c-2.105 2.106-1.979 3.75.459 5.956 2.732 2.472 7.317 1.011 7.815-2.491.61-4.285-5.074-6.664-8.274-3.465m13.618.179c-1.564 1.345-1.83 2.263-1.155 3.97 1.218 3.077 5.502 4.009 8.006 1.744 2.37-2.145 2.479-3.802.389-5.893-2.058-2.057-4.719-1.991-7.24.179m-5.154 7.184c-1.805 3.374-1.241 4.733 1.965 4.733 1.904 0 3-.512 3-1.399 0-1.959-1.885-5.268-3-5.268-.511 0-1.395.87-1.965 1.934m-16.465 9.599c-1.963 2.997-1.33 4.467 1.924 4.467 3.573 0 25.038 7.872 29.238 10.722l3.675 2.494 1.796-2.219c3.004-3.71 2.317-4.997-2.668-4.997-5.39 0-25.494-7.254-29.541-10.659l-2.771-2.331-1.653 2.523m32.334-.008c-.839.838-3.748 2.376-6.464 3.417-6.636 2.543-3.674 3.787 4.86 2.042 7.461-1.525 8.258-2.118 6.542-4.866-1.568-2.51-2.866-2.666-4.938-.593m-28.326 10.382c-5.614.676-6.294 1.6-3.681 5.001l1.85 2.408 3.082-2.194c1.696-1.208 4.452-2.673 6.127-3.256 1.674-.584 3.044-1.468 3.044-1.964 0-.957-2.446-.956-10.422.005" fill="#1976D2" fill-rule="evenodd"/></svg>