<svg xmlns="http://www.w3.org/2000/svg" width="256" height="256"><path fill-opacity=".016" d="M0 128.004v128.004l128.25-.254 128.25-.254.254-127.75L257.008 0H0v128.004m.485.496c0 70.4.119 99.053.265 63.672.146-35.38.146-92.98 0-128C.604 29.153.485 58.1.485 128.5" fill="#1976D2" fill-rule="evenodd"/><path fill-opacity=".135" d="M109.52 1.115c-43.95 6.4-82.872 36.774-99.872 77.939a128.242 128.242 0 0 0 0 97.892c12.753 30.881 38.525 56.653 69.406 69.406 37.229 15.375 79.654 12.334 114.314-8.192 31.973-18.935 53.677-50.514 61.281-89.16 1.864-9.477 2.99-35 1.543-35-.504 0-1.195-2.363-1.536-5.25-.34-2.888-1.55-8.8-2.688-13.139C238.913 45.823 196.686 8.312 145.5 1.035c-8.327-1.184-27.595-1.141-35.98.08m3.435 14.984c-23.621 3.055-49.987 16.535-66.508 34.002-22.492 23.78-34.016 57.073-30.684 88.649 4.19 39.7 27.571 73.38 62.737 90.369 37.046 17.897 78.354 15.163 112.293-7.433 10.948-7.288 24.361-20.552 31.031-30.686 25.489-38.723 25.489-87.277 0-126-2.353-3.575-8.114-10.488-12.801-15.362-24.803-25.79-60.263-38.169-96.068-33.539M98.2 58.2c-.825.825-1.2 5.822-1.2 16V89h7.056l-.609 6.75c-.663 7.355-1.063 7.897-11.447 15.506-8.042 5.894-7.997 5.642-7.998 44.026-.002 37.857.233 39.432 6.333 42.341 3.196 1.524 4.449 1.524 17.305 0 17.352-2.057 24.258-2.054 42.016.019 13.808 1.611 14.238 1.604 17.498-.3 5.884-3.436 5.874-3.358 5.191-42.342-.476-27.146-.947-36.142-1.999-38.23-.757-1.501-4.681-4.959-8.72-7.685-7.871-5.311-8.587-6.668-8.615-16.335C153 89.129 153.12 89 156.5 89h3.5V75.223C160 55.216 163.118 57 128.143 57c-21.022 0-29.065.322-29.943 1.2M110 92c0 1.926.667 2 18 2s18-.074 18-2-.667-2-18-2-18 .074-18 2m-.783 11.477c-1.035 3.871-2.108 5.157-7.463 8.944-3.44 2.433-7.272 5.349-8.517 6.479l-2.263 2.055.263 34.772.263 34.773 12-.473c18.699-.736 36.915-.599 49.75.375l11.75.892v-34.713c0-21.015-.391-35.443-.991-36.564-.545-1.018-4.089-3.911-7.876-6.429-6.555-4.357-8.51-6.888-9.34-12.088-.303-1.902-1.199-2.013-18.343-2.272l-18.024-.271-1.209 4.52M.392 128c0 7.425.157 10.463.35 6.75.192-3.713.192-9.787 0-13.5-.193-3.713-.35-.675-.35 6.75m121.212-4.962c-4.223 1.264-8.481 5.792-9.699 10.314-.852 3.163-.735 4.803.585 8.261.906 2.373 1.504 5.162 1.329 6.197-.375 2.215 1.823 5.19 3.835 5.19.775 0 1.668.675 1.984 1.5.317.825 1.338 1.5 2.269 1.5s2.252.559 2.935 1.242c.988.988 1.421.951 2.123-.186.742-1.199 1.141-1.213 2.501-.084 1.226 1.017 1.9 1.062 2.776.186.637-.637 1.968-1.158 2.958-1.158.99 0 1.8-.675 1.8-1.5s.643-1.5 1.429-1.5c2.458 0 4.619-2.96 3.991-5.465-.323-1.283.124-3.686.999-5.378 2.045-3.954 1.968-6.708-.328-11.763-3.082-6.788-12.551-10.03-21.487-7.356m-3.674 16.546c-.95 1.145-1.025 2.046-.27 3.25 2.197 3.505 8.34 2.143 8.34-1.849 0-3.114-5.811-4.123-8.07-1.401m13.165-.199c-2.134 2.572.375 5.796 4.221 5.423 2.803-.271 3.184-.667 3.184-3.308 0-2.62-.391-3.038-3.085-3.301-1.831-.179-3.587.304-4.32 1.186m-4.913 8.115c-1.075 2.36-.973 2.5 1.818 2.5s2.893-.14 1.818-2.5c-.626-1.375-1.445-2.5-1.818-2.5s-1.192 1.125-1.818 2.5m-17.115 8.141c-2.565 3.261-1.311 5.323 3.305 5.435 1.721.042 4.684.638 6.587 1.325l3.459 1.25-4.399 1.116c-2.419.614-4.767.889-5.218.61-1.517-.937-4.801.743-4.769 2.44.037 1.954 2.28 5.192 3.578 5.164.49-.01 3.932-1.56 7.65-3.444 5.727-2.903 6.491-3.583 5-4.451-.968-.564-1.535-1.039-1.26-1.055 1.08-.065 11.785 4.213 16.839 6.728l5.338 2.658 1.904-2.459c2.849-3.679 2.062-5.416-2.589-5.715-2.196-.141-5.567-.547-7.492-.903l-3.5-.648 4-1.269c2.2-.698 5.182-1.304 6.628-1.346 4.016-.118 5.378-2.375 3.324-5.51-2.01-3.068-3.54-3.232-5.892-.633-.963 1.063-3.957 2.727-6.655 3.697-2.698.97-4.905 2.121-4.905 2.558 0 1.249-13.225-4.052-15.544-6.231-2.67-2.507-2.902-2.478-5.389.683" fill="#1976D2" fill-rule="evenodd"/><path fill-opacity=".198" d="M113 1.018C83.953 5.06 60.492 16.139 40.237 35.38 21.04 53.615 8.419 76.132 2.896 102c-3.169 14.842-3.169 37.158 0 52 10.68 50.018 49.102 88.42 99.17 99.116 14.771 3.156 37.12 3.151 51.934-.012 42.404-9.054 77.097-38.366 93.031-78.604 3.668-9.264 7.947-27.104 7.96-33.191.005-2.305.459-4.469 1.009-4.809.55-.34 1-4.668 1-9.618 0-5.745-.362-8.777-1-8.382-.607.375-1.004-1.075-1.009-3.691-.013-6.19-4.262-23.971-7.96-33.309C231.082 41.224 195.905 11.541 154 2.998c-11.858-2.418-31.158-3.35-41-1.98m-4.822 15.426C53.851 26.755 15 73.268 15 128c0 55.431 39.455 102.055 94.484 111.654 13.041 2.274 33.746 1.386 46.793-2.009 31.768-8.265 58.378-29.891 73.228-59.512C237.537 162.112 241 147.01 241 128c0-31.068-11.236-58.31-32.997-80-14.196-14.15-32.457-24.62-51.726-29.657-12.21-3.192-36.278-4.143-48.099-1.899m-9.963 42.741C97.375 60.025 97 64.816 97 74.7V89h3.5c3.38 0 3.5.129 3.489 3.75-.028 9.667-.744 11.024-8.615 16.335-4.039 2.726-8.025 6.274-8.859 7.886C85.244 119.43 85 125.709 85 156.027v36.127l3.07 3.07 3.07 3.069 10.18-.661c5.599-.364 13.989-1.084 18.645-1.601 5.462-.606 11.849-.58 18 .072 5.244.555 13.81 1.263 19.035 1.573 9.367.554 9.538.523 12.25-2.193 1.512-1.516 2.788-3.707 2.833-4.869.046-1.163.012-17.414-.075-36.114-.131-27.996-.425-34.563-1.668-37.187-.926-1.958-4.003-4.813-7.971-7.399-8.419-5.484-9.369-6.969-9.369-14.637V89h6.052l-.276-15.25-.276-15.25-29.535-.265c-22.135-.198-29.84.04-30.75.95M110 91.5V94h37v-5h-37v2.5m-.395 8.75c-1.884 7.089-2.189 7.432-15.855 17.813L91 120.152v35.455c0 29.406.238 35.547 1.395 35.991.767.294 5.741.051 11.054-.542 12.913-1.44 37.313-1.43 49.784.02 9.395 1.092 10.204 1.046 11.439-.642 1.715-2.346 1.937-64.389.247-69.237-.705-2.021-2.635-4.013-5.54-5.715-7.72-4.524-11.327-8.305-12.012-12.59L146.744 99h-18.403c-13.879 0-18.485.307-18.736 1.25M.36 128c0 5.225.169 7.363.375 4.75.206-2.613.206-6.888 0-9.5S.36 122.775.36 128m123.14-5.093c-4.782 1.189-7.466 2.989-9.55 6.407-2.263 3.711-2.492 10.081-.492 13.686.763 1.375 1.142 3.728.844 5.229-.458 2.297-.103 2.896 2.246 3.789 1.534.583 3.351 1.829 4.037 2.768 1.785 2.44 14.239 2.28 15.627-.201.522-.933 1.988-2.091 3.257-2.573 2.594-.987 3.622-5.135 3.88-15.658.12-4.882-.26-6.601-1.847-8.353-3.953-4.365-11.892-6.612-18.002-5.094m-6.116 16.535c-1.232 3.21.054 5.058 3.521 5.058 3.68 0 5.818-2.173 4.786-4.864-.811-2.112-7.511-2.269-8.307-.194m13.866-.78c-1.588.641-1.617 3.571-.05 5.138 1.79 1.79 6.553 1.464 7.666-.524 2.093-3.741-2.653-6.616-7.616-4.614m-5.261 8.359c-1.343 2.51-.684 3.696 1.948 3.502 2.872-.212 3.386-1.05 2.109-3.437-1.406-2.627-2.675-2.648-4.057-.065m-16.39 8.468c-.879 1.343-1.599 2.858-1.599 3.369 0 1.188 2.488 2.142 5.589 2.142 3.299 0 27.007 8.808 28.477 10.58 1.781 2.145 3.324 1.723 5.18-1.419 2.103-3.56.778-5.201-3.621-4.488-3.776.613-24.437-6.627-29.276-10.259l-3.151-2.365-1.599 2.44m33.458-1.057c-.654.787-3.634 2.445-6.623 3.684-9.322 3.864-6.493 5.382 5.514 2.96 6.354-1.282 7.514-2.554 5.218-5.718-1.966-2.709-2.525-2.835-4.109-.926m-23.314 10.158c-.337.337-2.967.904-5.846 1.261-2.878.357-5.372 1.099-5.541 1.649-.17.55.562 2.125 1.626 3.5 1.651 2.134 2.196 2.316 3.726 1.245.986-.691 3.817-2.257 6.292-3.48 5.488-2.714 5.431-2.677 4.917-3.141-.965-.87-4.61-1.598-5.174-1.034" fill="#1976D2" fill-rule="evenodd"/><path fill-opacity=".265" d="M103.481 2.976C51.364 13.422 11.504 54.306 2.495 106.557c-8.136 47.19 11.336 95.428 50.09 124.091C74.584 246.918 99.614 255 128 255c29.286 0 53.885-8.204 77.181-25.739 26.691-20.091 45.173-51.754 48.893-83.761.575-4.95 1.551-11.405 2.168-14.344.85-4.045.835-5.803-.06-7.236-.65-1.041-1.182-3.64-1.182-5.775 0-6.322-2.742-20.176-5.917-29.89-14.355-43.929-51.434-76.454-97.292-85.343-13.042-2.528-35.524-2.498-48.31.064m12.425 12.046c-25.45 2.868-49.583 14.564-67.952 32.932-44.568 44.568-44.583 115.579-.035 160.127 45.637 45.638 119.014 44.398 163.049-2.753 40.966-43.867 40.924-110.834-.099-154.761-24.254-25.971-60.275-39.453-94.963-35.545M98.667 58.667C98.3 59.033 98 65.93 98 73.993v14.661l3-.441 3-.44v6.891c0 8.349-.817 9.679-9.369 15.25-9.964 6.492-9.631 4.884-9.631 46.564v35.676l2.923 2.923c3.517 3.517 4.328 3.558 24.882 1.253 14.454-1.62 16.208-1.621 31.5-.004 21.23 2.244 21.282 2.241 24.829-1.306l2.98-2.98-.307-36.316c-.355-41.957.351-38.943-10.86-46.398-7.606-5.057-8.166-6.08-8.34-15.214L152.5 88.5l3.25.01 3.25.009V74.841c0-7.522-.273-14.389-.607-15.259-.534-1.393-4.105-1.582-29.833-1.582-16.075 0-29.527.3-29.893.667M109 92v3h38v-6h-38v3m-.004 9.25c-.006 3.909-3.496 8.189-10.28 12.609-4.557 2.969-6.898 5.223-7.642 7.36-.679 1.947-1.074 14.909-1.074 35.239 0 25.76.275 32.535 1.38 34.046 1.309 1.792 2.03 1.826 14.25.687 16.27-1.518 29.574-1.53 45.074-.042 9.816.942 12.507.921 13.75-.111 1.339-1.111 1.546-5.852 1.546-35.469 0-26.703-.288-34.581-1.317-35.988-.725-.991-4.437-3.89-8.25-6.441-6.069-4.062-7.12-5.232-8.433-9.385l-1.5-4.745-18.75-.005L109 99l-.004 2.25m10.428 23.645c-6.558 2.979-9.275 11.033-5.903 17.499.83 1.591 1.39 4.049 1.244 5.461-.201 1.946.399 2.891 2.485 3.91 1.513.739 2.75 1.77 2.75 2.29s.873.945 1.941.945 2.233.472 2.589 1.049c.443.716 1.094.678 2.059-.123 1.079-.895 1.746-.893 2.833.009 1.477 1.226 4.771.013 7.058-2.601.561-.641 1.92-1.323 3.02-1.516 1.536-.269 2.013-1.158 2.056-3.834.031-1.916.594-4.467 1.25-5.668 1.599-2.926 1.507-7.631-.23-11.789-2.848-6.815-14.374-9.619-23.152-5.632M.232 128c0 1.925.206 2.713.457 1.75.252-.963.252-2.537 0-3.5-.251-.963-.457-.175-.457 1.75m117.4 11.115c-1.719 2.454-1.193 4.514 1.523 5.968 2.506 1.341 5.559.32 6.979-2.334.95-1.775.771-2.407-1.112-3.932-2.966-2.402-5.572-2.297-7.39.298m14.118-1.035c-3.431 1.998-1.001 7.92 3.25 7.92 2.17 0 5-2.547 5-4.5 0-1.898-2.813-4.506-4.821-4.47-.924.017-2.466.489-3.429 1.05m-6.143 8.502c-1.24 3.232-.64 4.285 2.393 4.199 2.085-.059 3-.588 3-1.733 0-3.484-4.256-5.43-5.393-2.466m-16.4 9.459c-1.551 2.483-.8 3.959 2.014 3.959 3.31 0 22.733 6.865 28.484 10.068l5.205 2.898 1.545-2.205c2.596-3.707 1.956-4.761-2.888-4.761-4.993 0-24.314-6.697-28.721-9.956-3.444-2.546-4.051-2.546-5.639-.003m32.837-.594c-.661.796-3.191 2.208-5.623 3.136-8.186 3.127-4.672 4.441 5.516 2.063 5.702-1.331 7.065-2.733 5.035-5.18-1.545-1.862-3.393-1.869-4.928-.019M114.5 165.703c-6.249.573-6.658.856-5.358 3.708 1.553 3.41 3.287 3.826 6.247 1.497 1.385-1.088 3.888-2.457 5.564-3.041 1.676-.585 3.047-1.469 3.047-1.965 0-.889-1.611-.923-9.5-.199" fill="#1976D2" fill-rule="evenodd"/></svg>