<svg xmlns="http://www.w3.org/2000/svg" width="256" height="256"><path fill-opacity=".016" d="M0 128.004v128.004l128.25-.254 128.25-.254.254-127.75L257.008 0H0v128.004m.485.496c0 70.4.119 99.053.265 63.672.146-35.38.146-92.98 0-128C.604 29.153.485 58.1.485 128.5" fill="#1976D2" fill-rule="evenodd"/><path fill-opacity=".135" d="M108.306 17.485C87.088 21.334 67.6 31.157 51.672 46.032c-47.757 44.6-47.757 119.336 0 163.936C96.7 252.019 167.098 249.801 209.361 205c36.031-38.195 40.911-95.221 11.915-139.235-16.339-24.801-44.427-43.119-74.036-48.282-10.253-1.788-29.07-1.787-38.934.002m6.944 12.514c-41.106 5.789-73.451 35.136-83.427 75.694-3.048 12.392-3.048 32.222 0 44.614 9.157 37.229 36.608 64.682 73.87 73.877 13.011 3.21 33.195 3.018 46.318-.441 36.875-9.718 64.579-38.453 72.545-75.243 2.321-10.72 2.321-30.28 0-41-6.592-30.444-27.832-56.775-56.155-69.618-14.847-6.731-37.487-10.089-53.151-7.883m-14.215 37.935c-.569 1.064-1.035 7.364-1.035 14V94h3c2.973 0 3 .051 3 5.545 0 6.195-.849 7.396-9.35 13.227-7.535 5.168-7.65 5.767-7.65 39.746 0 32.023.245 33.67 5.425 36.442 2.21 1.183 4.482 1.185 15.335.016 7.007-.754 15.215-1.372 18.24-1.372 3.025 0 11.233.618 18.24 1.372 10.853 1.169 13.125 1.167 15.335-.016 5.18-2.772 5.425-4.419 5.425-36.442 0-33.979-.115-34.578-7.65-39.746-8.501-5.831-9.35-7.032-9.35-13.227 0-5.494.027-5.545 3-5.545h3V81.934c0-6.636-.466-12.936-1.035-14C153.982 66.098 152.612 66 128 66s-25.982.098-26.965 1.934M112 96c0 1.917.667 2 16 2s16-.083 16-2-.667-2-16-2-16 .083-16 2m-.363 10.065c-.687 3.436-3.918 6.891-10.908 11.664L96 120.959v62.298l12.25-.877c15.428-1.106 24.072-1.106 39.5 0l12.25.877v-62.298l-4.729-3.23c-6.99-4.773-10.221-8.228-10.908-11.664L143.75 103h-31.5l-.613 3.065m8.815 18.286c-5.468 2.481-8.536 9.838-6.347 15.225.654 1.608 1.235 4.26 1.292 5.894.072 2.068.827 3.33 2.488 4.159 1.312.655 2.754 1.787 3.205 2.516 1.1 1.781 13.081 1.842 13.672.069.23-.691 1.742-1.94 3.36-2.777 2.089-1.081 2.868-2.16 2.691-3.729-.137-1.214.33-4.008 1.039-6.208 1.635-5.079-.073-10.86-4.089-13.84-3.452-2.562-12.963-3.281-17.311-1.309m-1.734 13.899c-.704 1.966 1.168 4.75 3.195 4.75 2.369 0 4.478-2.537 3.73-4.487-.704-1.835-6.285-2.047-6.925-.263m11.639.263C129.62 140.432 131.705 143 134 143c2.346 0 4.184-2.357 3.41-4.373-.804-2.097-6.259-2.185-7.053-.114m-3.75 6.069c-.88 2.294-.809 2.418 1.393 2.418 1.1 0 2-.188 2-.418 0-1.22-1.319-3.582-2-3.582-.432 0-1.059.712-1.393 1.582m-15.606 7.916c-1.663 3.107-1.242 3.528 4.621 4.624 7.48 1.397 7.418 2.609-.191 3.697-5.497.787-6.123 1.718-3.474 5.168l1.91 2.488 2.816-2.043c1.549-1.123 4.274-2.632 6.054-3.353 1.781-.721 2.987-1.717 2.68-2.213-.876-1.418 12.781 4.003 14.887 5.909 1.79 1.62 1.984 1.587 3.791-.644 1.933-2.388 2.521-5.05 1.155-5.23-.412-.054-2.649-.191-4.97-.303-7.456-.362-7.248-2.339.361-3.428 5.277-.755 6.344-2.334 3.815-5.648-1.252-1.64-1.804-1.768-3.233-.749-.948.677-4.183 2.373-7.19 3.769l-5.467 2.54-5.752-2.152c-3.164-1.183-6.271-2.776-6.906-3.54-1.719-2.072-3.409-1.69-4.907 1.108" fill="#1976D2" fill-rule="evenodd"/><path fill-opacity=".125" d="M112.955 17.099C77.092 21.738 44.323 45.35 27.744 78.5c-3.833 7.665-7.927 19.64-9.915 29-1.645 7.745-1.645 33.255 0 41 4.915 23.146 15.278 42.583 31.183 58.488 43.663 43.662 114.29 43.656 157.961-.015 28.633-28.633 39.64-70.845 28.544-109.473-15.345-53.422-67.354-87.541-122.562-80.401m-2.613 13.314c-40.72 7.766-72.82 39.978-79.815 80.095-8.956 51.358 22.185 99.658 73.327 113.731 11.077 3.048 37.215 3.048 48.292 0 36.01-9.909 62.252-36.251 72.033-72.307 3.312-12.208 3.312-35.656 0-47.864-9.785-36.072-36.478-62.835-72.033-72.222-9.949-2.626-31.647-3.37-41.804-1.433M102.2 67.2c-.808.808-1.2 5.378-1.2 14V94h6.188l-.666 5.25c-1.009 7.948-1.099 8.094-7.63 12.314-3.351 2.165-6.722 5.151-7.492 6.636-1.114 2.149-1.4 9.207-1.4 34.576 0 31.789.006 31.881 2.25 33.901 3.613 3.252 5.013 3.362 20.77 1.625 13.925-1.535 16.035-1.535 29.96 0 15.757 1.737 17.157 1.627 20.77-1.625 2.244-2.02 2.25-2.112 2.25-33.901 0-25.369-.286-32.427-1.4-34.576-.77-1.485-4.141-4.471-7.492-6.636-6.531-4.22-6.621-4.366-7.63-12.314l-.666-5.25H155V81.2c0-8.622-.392-13.192-1.2-14-1.706-1.706-49.894-1.706-51.6 0m9.8 29.3V99h32v-5h-32v2.5m-.647 9.486c-.712 3.558-4.212 7.261-10.159 10.746-2.393 1.402-4.765 3.641-5.272 4.974-.507 1.333-.922 15.39-.922 31.237 0 23.748.251 29.02 1.428 29.997 1.081.898 3.746.927 10.961.123C112.632 182.478 121.907 182 128 182s15.368.478 20.611 1.063c7.215.804 9.88.775 10.961-.123 1.177-.977 1.428-6.249 1.428-29.997 0-15.847-.415-29.904-.922-31.237-.507-1.333-2.879-3.572-5.272-4.974-5.947-3.485-9.447-7.188-10.159-10.746L144.05 103h-32.1l-.597 2.986m10.062 18.435c-5.211 2.269-7.666 6.306-7.034 11.566 1.397 11.643 1.784 13.013 3.674 13.013 1.015 0 2.205.563 2.645 1.25 1.493 2.333 4.935 3.715 6.172 2.478.837-.837 1.419-.837 2.256 0 1.173 1.173 3.71.229 6.655-2.478.748-.687 1.955-1.25 2.683-1.25 1.281 0 1.896-2.539 3.153-13.013.442-3.682.128-5.039-1.706-7.371-4.097-5.208-12.036-7.008-18.498-4.195m-2.375 13.031c-.669.806-.908 2.389-.537 3.557.525 1.656 1.343 2.039 3.832 1.798 2.574-.25 3.222-.796 3.469-2.926.234-2.023-.221-2.76-2-3.237-3.21-.859-3.408-.826-4.764.808m12.652-.751c-1.286.333-1.719 1.238-1.5 3.134.252 2.18.883 2.721 3.473 2.972 2.538.246 3.304-.134 3.872-1.924.503-1.583.182-2.616-1.106-3.557-.997-.729-2.065-1.274-2.372-1.21-.308.064-1.373.327-2.367.585M126 145c-1.144 2.138-1.069 2.222 2 2.222 1.1 0 2.241-.05 2.535-.111.888-.184-1.533-4.111-2.535-4.111-.511 0-1.411.9-2 2m-14.582 7.09c-1.856 2.052-1.855 2.117.036 3.5 1.061.776 2.957 1.41 4.214 1.41 2.88 0 21.294 6.785 23.411 8.627 2.229 1.939 4.232 1.705 5.714-.668 1.741-2.787.736-3.959-3.396-3.959-4.282 0-22.131-6.512-24.961-9.107-2.574-2.36-2.708-2.355-5.018.197m28.223-.245c-.919 1.014-3.477 2.441-5.685 3.17-2.433.802-3.655 1.686-3.1 2.241 1.212 1.212 11.572-.118 13.84-1.776 1.697-1.241 1.692-1.394-.114-3.39-2.316-2.558-2.825-2.584-4.941-.245m-24.391 8.887c-3.303.298-4.25.789-4.25 2.203 0 1.001.675 2.38 1.5 3.065 1.227 1.018 2.489.727 6.925-1.595 5.442-2.849 6.356-4.556 2.266-4.23-1.205.096-4.103.347-6.441.557" fill="#1976D2" fill-rule="evenodd"/><path fill-opacity=".321" d="M121.5 16.667c-28.197 2.208-51.578 12.615-71.341 31.755C28.516 69.381 16.725 97.447 16.725 128c0 30.553 11.791 58.619 33.434 79.578 21.677 20.993 47.902 31.659 77.841 31.659 53.691 0 99.505-37.863 109.488-90.487 1.955-10.304 1.955-31.196 0-41.5-6.486-34.191-28.51-63.194-59.988-78.996-16.472-8.269-38.956-12.922-56-11.587m-3 12.461c-23.143 1.991-46.753 13.604-63 30.99-35.696 38.199-35.696 97.565 0 135.764 38.275 40.958 102.819 41.951 142.576 2.194 12.131-12.131 20.453-26.029 25.62-42.788 2.533-8.212 2.71-10.001 2.71-27.288s-.177-19.076-2.71-27.288c-5.167-16.759-13.489-30.657-25.62-42.788-16.112-16.112-38.348-26.944-58.455-28.477-3.917-.298-8.246-.666-9.621-.818-1.375-.151-6.55.073-11.5.499m-16.893 39.454c-.334.87-.607 6.69-.607 12.933v11.352l2.75.317c2.372.273 2.792.818 3.054 3.966.59 7.074-.925 9.943-7.86 14.888-3.544 2.527-7 5.69-7.679 7.028-.901 1.776-1.24 10.898-1.25 33.729L90 184.091l2.598 2.598c2.589 2.589 2.636 2.596 12.75 1.728 5.584-.479 15.777-.87 22.652-.87 6.875 0 17.068.391 22.652.87 10.114.868 10.161.861 12.75-1.728l2.598-2.598-.015-31.296c-.01-22.831-.349-31.953-1.25-33.729-.679-1.338-4.135-4.501-7.679-7.028-6.935-4.945-8.45-7.814-7.86-14.888.262-3.148.682-3.693 3.054-3.966l2.75-.317V81.515c0-6.243-.273-12.063-.607-12.933C153.861 67.196 150.591 67 128 67s-25.861.196-26.393 1.582m9.573 27.668c.317 2.23.47 2.25 16.82 2.25s16.503-.02 16.82-2.25l.319-2.25h-34.278l.319 2.25m.372 7c-.212.688-.654 2.478-.982 3.979-.377 1.72-2.302 3.937-5.212 6-2.537 1.799-5.913 4.48-7.5 5.959l-2.887 2.687.264 30.813.265 30.812 6.5-.219c8.409-.284 43.591-.284 52 0l6.5.219.265-30.812.264-30.813-2.887-2.687c-1.587-1.479-4.963-4.16-7.5-5.959-2.91-2.063-4.835-4.28-5.212-6-.328-1.501-.77-3.291-.982-3.979-.287-.932-4.47-1.25-16.448-1.25-11.978 0-16.161.318-16.448 1.25m12.723 20.711c-5.231 1.259-8.104 3.737-9.419 8.125-.989 3.301-.97 4.706.098 7.254.729 1.738 1.279 4.415 1.223 5.949-.076 2.062.512 3.022 2.255 3.685 1.297.493 2.544 1.455 2.772 2.138.272.815 2.603 1.241 6.796 1.241s6.524-.426 6.796-1.241c.228-.683 1.542-1.67 2.921-2.194 1.912-.728 2.374-1.46 1.949-3.089-.308-1.175.092-3.394.888-4.933 5.033-9.734-4.592-19.747-16.279-16.935m-5.025 12.701c-2.02.815-1.464 5.153.817 6.374 1.608.86 2.608.752 4.5-.488 2.93-1.92 3.128-4.106.499-5.513-2.044-1.093-3.758-1.203-5.816-.373m11.445.572c-3.613 2.642 1.31 7.904 5.365 5.734 3.045-1.63 2.302-6.367-1.061-6.76-1.375-.161-3.312.301-4.304 1.026m-4.66 6.7c-1.674 3.128-1.22 4.066 1.965 4.066 1.65 0 3-.48 3-1.066 0-1.683-1.976-4.934-3-4.934-.511 0-1.395.87-1.965 1.934m-14.021 8.04c-1.585 2.962-1.213 4.026 1.406 4.026 3.178 0 18.888 5.518 24.469 8.595 4.718 2.601 7.111 2.023 7.111-1.717 0-1.52-.752-1.878-3.948-1.878-4.68 0-19.593-5.199-24.538-8.555-3.365-2.284-3.521-2.3-4.5-.471m28.687-.196c-.952 1.051-3.537 2.508-5.745 3.237-6.096 2.011-3.292 3.339 3.911 1.852 6.283-1.298 7.092-2.173 4.848-5.242-1.22-1.668-1.373-1.66-3.014.153m-21.011 8.865c-.354.354-2.304.692-4.334.75-4.192.121-5.033 1.312-2.928 4.147 1.229 1.656 1.735 1.763 3.263.689.995-.7 3.525-2.103 5.623-3.119 2.917-1.412 3.427-1.995 2.168-2.478-2.083-.8-2.983-.797-3.792.011" fill="#1976D2" fill-rule="evenodd"/></svg>