<svg xmlns="http://www.w3.org/2000/svg" version="1.1" xmlns:xlink="http://www.w3.org/1999/xlink" xmlns:svgjs="http://svgjs.dev/svgjs" width="1000" height="325" viewBox="0 0 1000 325"><g transform="matrix(1,0,0,1,-0.6060606060606233,0.12045694837630094)"><svg viewBox="0 0 396 129" data-background-color="#ffffff" preserveAspectRatio="xMidYMid meet" height="325" width="1000" xmlns="http://www.w3.org/2000/svg" xmlns:xlink="http://www.w3.org/1999/xlink"><g id="tight-bounds" transform="matrix(1,0,0,1,0.2400000000000091,-0.04781214258628097)"><svg viewBox="0 0 395.52 129.09543562144083" height="129.09543562144083" width="395.52"><g><svg viewBox="0 0 685.6913207566173 223.8056729240408" height="129.09543562144083" width="395.52"><g transform="matrix(1,0,0,1,290.1713207566173,41.62287594869366)"><svg viewBox="0 0 395.52 140.55992102665348" height="140.55992102665348" width="395.52"><g id="textblocktransform"><svg viewBox="0 0 395.52 140.55992102665348" height="140.55992102665348" width="395.52" id="textblock"><g><svg viewBox="0 0 395.52 140.55992102665348" height="140.55992102665348" width="395.52"><g transform="matrix(1,0,0,1,0,0)"><svg width="395.52" viewBox="2.25 -35.5 101.29000091552734 36" height="140.55992102665348" data-palette-color="#3d9970"><g class="undefined-text-0" data-fill-palette-color="primary" id="text-0"><path d="M23.8 0L2.25 0 2.25-2.2Q2.25-7.35 4.33-11.03 6.4-14.7 10.2-18.3L10.2-18.3Q12.6-20.55 13.93-21.98 15.25-23.4 16.73-25.78 18.2-28.15 18.75-30.6L18.75-30.6 2.25-30.6 2.25-35 23.7-35Q23.7-29.5 22.75-26.9L22.75-26.9Q20.6-21 13.95-15.25L13.95-15.25Q10.8-12.6 9.18-10.13 7.55-7.65 7.15-4.4L7.15-4.4 23.8-4.4 23.8 0ZM33.25-23.75L33.25-23.75Q33.25-17.15 38.9-17.15L38.9-17.15Q41.3-17.15 43.5-17.75L43.5-17.75 43.5-13.7Q41.1-12.8 38.6-12.8L38.6-12.8Q33.85-12.8 31.07-15.73 28.3-18.65 28.3-23.75L28.3-23.75Q28.3-29.2 31.25-32.35 34.2-35.5 39.05-35.5L39.05-35.5Q45.7-35.5 48.72-31.2 51.75-26.9 51.75-17.5L51.75-17.5Q51.75-9.5 47.12-4.75 42.5 0 34.5 0L34.5 0 31.6 0 31.6-4.4 35.1-4.4Q40.8-4.4 43.9-7.7 47-11 47-17.5L47-17.5Q47-24.85 45.12-28.08 43.25-31.3 39.2-31.3L39.2-31.3Q36.45-31.3 34.85-29.4 33.25-27.5 33.25-23.75ZM66.9-35L66.9 0 62.2 0 62.2-30.3 55.75-30.3 57.85-35 66.9-35ZM71.79-0.4L71.79-0.4Q70.89-1.3 70.89-2.6L70.89-2.6Q70.89-3.9 71.79-4.8 72.69-5.7 73.99-5.7L73.99-5.7Q75.29-5.7 76.19-4.8 77.09-3.9 77.09-2.6L77.09-2.6Q77.09-1.3 76.19-0.4 75.29 0.5 73.99 0.5L73.99 0.5Q72.69 0.5 71.79-0.4ZM103.54-11.25L103.54-11.25Q103.54-5.8 100.29-2.65 97.04 0.5 91.74 0.5L91.74 0.5Q87.09 0.5 84.17-1.25 81.24-3 80.44-6.35L80.44-6.35 84.39-8.5Q85.74-6.05 87.27-4.98 88.79-3.9 91.59-3.9L91.59-3.9Q94.79-3.9 96.62-5.7 98.44-7.5 98.44-11.25L98.44-11.25Q98.44-15.05 96.72-16.7 94.99-18.35 91.69-18.35L91.69-18.35 82.94-18.35 82.94-35 102.14-35 102.14-30.3 87.34-30.3 87.34-22.75 91.69-22.75Q97.49-22.75 100.52-19.78 103.54-16.8 103.54-11.25Z" fill="#3d9970" data-fill-palette-color="primary"></path></g></svg></g></svg></g></svg></g></svg></g><g><svg viewBox="0 0 223.8056729240408 223.8056729240408" height="223.8056729240408" width="223.8056729240408"><g><svg></svg></g><g id="icon-0"><svg viewBox="0 0 223.8056729240408 223.8056729240408" height="223.8056729240408" width="223.8056729240408"><g><path d="M0 111.903c0-61.802 50.101-111.903 111.903-111.903 61.802 0 111.903 50.101 111.903 111.903 0 61.802-50.101 111.903-111.903 111.903-61.802 0-111.903-50.101-111.903-111.903zM111.903 211.13c54.802 0 99.227-44.425 99.227-99.227 0-54.802-44.425-99.227-99.227-99.227-54.802 0-99.227 44.425-99.227 99.227 0 54.802 44.425 99.227 99.227 99.227z" data-fill-palette-color="accent" fill="#3d9970" stroke="transparent"></path></g><g transform="matrix(1,0,0,1,73.50126463643603,50.3807071027174)"><svg viewBox="0 0 76.80314365116874 123.044258718606" height="123.044258718606" width="76.80314365116874"><g><svg xmlns="http://www.w3.org/2000/svg" xmlns:xlink="http://www.w3.org/1999/xlink" version="1.1" x="0" y="0" viewBox="100.79402160644531 7.349977493286133 310.4090576171875 497.29803466796875" enable-background="new 0 0 512 512" xml:space="preserve" height="123.044258718606" width="76.80314365116874" class="icon-s-0" data-fill-palette-color="accent" id="s-0"><g fill="#3d9970" data-fill-palette-color="accent"><g fill="#3d9970" data-fill-palette-color="accent"><path fill="#3d9970" d="M306.927 310.907c4.263-7.054 6.624-14.662 6.553-22.842-0.154-17.922-6.212-33.195-22.276-42.532-18.957-11.009-39.137-11.71-59.824-5.042-32.095 10.347-40.571 48.532-25.909 70.891 1.608 2.444 2.694 5.408 3.267 8.283 0.334 1.698-0.81 3.691-1.293 5.55-0.559 2.18-1.826 4.444-1.55 6.508 0.855 6.405 5.608 10.27 12.16 10.598 7.71 0.386 9.337 2.013 9.845 9.44 0.058 0.759 1.228 1.942 2.013 2.064 2.63 0.392 5.344 0.65 7.993 0.469 2.675-0.193 3.891 0.682 4.27 3.331 0.122 0.849 1.209 2.167 1.929 2.225 2.174 0.161 4.379-0.193 6.585-0.341 0.122-1.82 0.219-3.286 0.322-4.881h10.231c0.116 1.813 0.206 3.37 0.309 4.99 2.733 0.122 5.177 0.231 7.826 0.354 0.238-0.855 0.463-1.363 0.502-1.884 0.219-3.08 1.794-4.083 4.855-3.801 2.418 0.232 4.907-0.244 7.363-0.347 1.73-0.077 2.579-0.791 2.302-2.617-1.003-6.707 3.685-8.559 8.533-9.022 2.592-0.251 5.357-0.765 7.627-1.955 5.968-3.132 7.357-10.508 3.685-15.851-0.939-1.363-1.209-3.717-0.791-5.363C304.188 316.276 305.403 313.44 306.927 310.907zM238.531 316.43c-6.315 1.743-12.462 2.039-18.044-2.096-6.681-4.952-6.553-17.877 0.457-22.366 2.45-1.569 5.382-2.199 8.437-2.244 4.656-0.064 9.588 1.215 13.504 2.566 5.357 1.852 7.357 5.968 6.456 11.562C248.312 310.244 244.994 314.656 238.531 316.43zM265.527 334.803c-1.447 1.434-3.981 1.813-5.762 0.424-2.746-2.135-4.932-1.691-7.762-0.058-1.389 0.797-4.135 0.559-5.505-0.354-1.055-0.701-1.711-3.518-1.164-4.829 1.929-4.669 4.328-9.164 6.849-13.556 0.534-0.913 2.341-1.1 3.563-1.62 0.058 0.199 0.122 0.405 0.187 0.604 2.643-0.9 3.865 0.72 4.932 2.649 1.344 2.437 2.778 4.829 4.032 7.312 0.746 1.479 1.595 3.061 1.717 4.649C266.729 331.626 266.524 333.812 265.527 334.803zM294.831 310.244c-2.817 5.652-8.16 7.177-14.372 7.46-5.485-0.695-11.582-1.113-15.022-6.726-1.64-2.675-2.63-5.987-3.042-9.125-0.502-3.845 1.44-7.029 4.964-8.816 6.572-3.325 13.614-3.897 20.713-2.482 1.833 0.36 3.839 1.878 4.939 3.447C296.523 298.984 297.648 304.598 294.831 310.244z" data-fill-palette-color="accent"></path><path fill="#3d9970" d="M280.011 379.063l-17.941-6.431c11.022-4.283 22.006-8.688 33.041-12.958 5.087-1.968 8.887-5.427 12.186-9.607 0.727-0.913 1.473-1.858 2.373-2.592 4.321-3.556 8.559-2.212 10.636 2.952 0.81 2.006 2.238 4.18 4 5.312 4.096 2.624 5.061 8.263 1.46 11.742-2.862 2.765-6.527 3.563-10.334 3.672C305.219 371.455 291.425 374.529 280.011 379.063z" data-fill-palette-color="accent"></path><path fill="#3d9970" d="M230.766 383.935l17.103 6.788c-9.595 3.919-19.183 7.856-28.581 12.195-4.251 1.959-8.026 5.245-11.526 8.467-6.667 6.146-13.145 4.742-16.375-3.756-0.734-1.919-2.063-3.721-3.488-5.231-2.157-2.29-3.387-4.532-2.093-7.747 1.343-3.332 3.65-5.316 7.191-5.457 2.551-0.099 5.148 0.084 7.66 0.501 6.819 1.132 13.429 0.481 19.897-1.859C223.966 386.605 227.371 385.354 230.766 383.935z" data-fill-palette-color="accent"></path><path fill="#3d9970" d="M326.35 400.612c-1.936 2.733-3.71 5.633-5.157 8.649-2.534 5.273-9.318 7.633-13.234 3.563-8.778-9.138-20.398-12.61-31.529-17.151-4.907-2.006-9.858-3.884-14.835-5.71h-0.006c-0.039-0.013-0.077-0.032-0.122-0.045-0.116-0.045-0.238-0.084-0.354-0.129-0.064-0.026-0.141-0.051-0.219-0.084-0.167-0.058-0.341-0.122-0.514-0.186-0.193-0.071-0.399-0.148-0.624-0.225-4.945-1.801-17.523-6.373-22.507-8.18 0.019-0.006 0.026-0.019 0.045-0.026-0.611-0.206-1.209-0.418-1.82-0.624-0.019-0.006-0.039-0.013-0.051-0.019-0.039-0.013-0.077-0.026-0.103-0.032-0.103-0.039-0.154-0.058-0.154-0.058h-0.006c-5.588-1.903-11.183-3.807-16.758-5.73-6.926-2.392-13.942-3.871-21.369-3.556-2.656 0.109-5.485-0.778-8.038-1.736-2.952-1.113-5.029-3.363-4.984-6.791 0.039-3.157 1.074-5.595 4.328-7.157 1.524-0.727 2.624-2.965 3.292-4.752 2.09-5.543 7.408-7.447 10.823-2.752 7.794 10.694 19.62 13.916 30.816 18.462 6.289 2.566 12.662 4.952 19.047 7.279 0 0 0.476 0.174 1.299 0.476 3.665 1.344 14.218 5.202 20.565 7.517-0.071 0.032-0.141 0.071-0.212 0.103 1.588 0.476 3.151 0.997 4.701 1.53 0.122 0.045 0.219 0.077 0.302 0.109h0.006c9.82 3.434 18.945 7.575 29.343 6.501 2.547-0.264 5.074-0.746 7.607-1.138 6.064-0.926 9.742 0.965 11.479 5.653C328.286 396.76 327.784 398.586 326.35 400.612z" data-fill-palette-color="accent"></path><path fill="#3d9970" d="M261.465 389.918c-0.116-0.045-0.238-0.084-0.354-0.129C261.246 389.834 261.369 389.879 261.465 389.918z" data-fill-palette-color="accent"></path></g><path fill="#3d9970" d="M411.066 245.236c0.111-20.997-6.94-37.043-25.528-47.829-9.835-5.702-19.14-12.421-28.49-18.919-3.802-2.652-8.067-5.68-10.278-9.88-0.558-1.063-0.973-2.218-1.295-3.423l-0.003-1.948c-0.519-2.742-0.972-5.487-1.358-8.242-0.047-0.494-0.095-0.986-0.151-1.461-0.603-5.037-1.037-10.089-1.353-15.147-0.332-6.829-0.373-13.666-0.232-20.482l0.332 0.066c-0.007-0.02-0.016-0.045-0.023-0.066h22.958v-0.575h0.227c0-31.518-0.287-61.665 0.177-91.79 0.133-8.288-2.321-14.123-9.327-18.19h-0.316H155.593h-0.316c-7.006 4.067-9.46 9.902-9.327 18.19 0.464 30.125 0.177 60.273 0.177 91.79h0.227v0.575h22.958c-0.007 0.021-0.016 0.046-0.023 0.066l0.332-0.066c0.141 6.816 0.1 13.653-0.232 20.481-0.316 5.058-0.75 10.11-1.353 15.147-0.057 0.475-0.104 0.967-0.151 1.461-0.387 2.755-0.839 5.5-1.358 8.242l-0.003 1.948c-0.322 1.205-0.737 2.36-1.295 3.423-2.21 4.199-6.476 7.227-10.278 9.88-9.349 6.498-18.654 13.217-28.49 18.919-18.588 10.786-25.639 26.832-25.528 47.829 0.363 68.944 0.581 137.929-0.078 206.876h-0.061v16.289c0 19.384 10.963 30.103 27.959 36.248h0.316 21.786 0.316c15.837-1.989 31.744-3.528 47.518-5.904 19.08-2.017 38.167-3.825 57.31-4.212 19.142 0.387 38.23 2.195 57.309 4.212 15.774 2.375 31.681 3.914 47.518 5.904h0.316 21.786 0.316c16.997-6.145 27.959-16.864 27.959-36.248v-16.289h-0.061C410.484 383.165 410.703 314.181 411.066 245.236zM321.905 118.304v18.942H190.094v-18.942H321.905zM142.089 213.476c8.797-4.443 16.599-10.852 24.976-16.223 13.593-8.708 21.771-20.533 22.146-37.11 0.023-1.087 0.215-2.171 0.458-3.311 0.275-1.168 0.568-2.328 0.796-3.474h131.072c0.227 1.146 0.521 2.306 0.796 3.474 0.243 1.141 0.435 2.224 0.458 3.311 0.376 16.577 8.554 28.401 22.146 37.11 8.377 5.371 16.179 11.781 24.976 16.223 14.853 7.493 19.163 19.052 19.03 35.076-0.685 72.142-0.486 144.283-0.575 216.402-0.022 14.101-3.647 18.08-17.704 17.085-4.425-0.311-8.843-0.712-13.257-1.155-2.402-0.244-4.804-0.496-7.205-0.752-2.746-0.296-5.492-0.595-8.238-0.891-20.76-2.282-41.504-4.676-62.31-5.357-7.875-0.26-15.761-0.242-23.653-0.071-7.891-0.171-15.777-0.189-23.653 0.071-20.806 0.68-41.55 3.075-62.31 5.357-2.746 0.297-5.492 0.596-8.238 0.891-2.401 0.257-4.803 0.508-7.205 0.752-4.415 0.443-8.833 0.845-13.258 1.155-14.057 0.995-17.682-2.984-17.704-17.085-0.088-72.119 0.11-144.261-0.575-216.402C122.926 232.528 127.236 220.968 142.089 213.476z" data-fill-palette-color="accent"></path></g></svg></g></svg></g></svg></g></svg></g></svg></g><defs></defs></svg><rect width="395.52" height="129.09543562144083" fill="none" stroke="none" visibility="hidden"></rect></g></svg></g></svg>